<svg id="Layer_1" data-name="Layer 1" xmlns="http://www.w3.org/2000/svg" viewBox="0 0 324 61.9"><defs><style>.cls-1{fill:#1d5fa3;}.cls-2{fill:#be1e2d;}.cls-3{fill:#fff;}</style></defs><rect class="cls-1" width="324" height="53"/><path class="cls-2" d="M23.06,61.9V55.84h6.2v1H24.47v1.35h2.8v1h-2.8v1.5h4.85V61.9Z" transform="translate(0 0)"/><path class="cls-2" d="M33.79,61.9V55.84h1L39,59.41c.14.12.27.23.38.34s.21.21.31.32c0-.34,0-.58,0-.72s0-.25,0-.33V55.84h1.27V61.9H40l-4.45-3.74-.28-.26L35,57.66c0,.19,0,.37,0,.53s0,.31,0,.44V61.9Z" transform="translate(0 0)"/><path class="cls-2" d="M51.59,56.92H47.18v3.84h4.41V59.41H49.28v-1H53v2.09a1.56,1.56,0,0,1-.31,1.13,1.72,1.72,0,0,1-1.19.3H47.28a1.77,1.77,0,0,1-1.2-.3,1.61,1.61,0,0,1-.31-1.13v-3.2a1.61,1.61,0,0,1,.31-1.13,1.77,1.77,0,0,1,1.2-.3h4.18a1.76,1.76,0,0,1,1.19.3A1.42,1.42,0,0,1,53,57.21v.14l-1.37.25Z" transform="translate(0 0)"/><path class="cls-2" d="M57.82,61.9V55.84h1.42V61.9Z" transform="translate(0 0)"/><path class="cls-2" d="M64.2,61.9V55.84h1l4.26,3.57a4.75,4.75,0,0,1,.39.34,3,3,0,0,1,.3.32c0-.34,0-.58,0-.72s0-.25,0-.33V55.84h1.26V61.9h-1l-4.45-3.74-.28-.26-.23-.24c0,.19,0,.37,0,.53s0,.31,0,.44V61.9Z" transform="translate(0 0)"/><path class="cls-2" d="M76.31,61.9V55.84h6.2v1H77.72v1.35h2.8v1h-2.8v1.5h4.85V61.9Z" transform="translate(0 0)"/><path class="cls-2" d="M87.06,61.9V55.84h6.2v1H88.47v1.35h2.8v1h-2.8v1.5h4.85V61.9Z" transform="translate(0 0)"/><path class="cls-2" d="M97.81,61.9V55.84H103a1.57,1.57,0,0,1,1.05.28,1.09,1.09,0,0,1,.32.89v1.43a1.1,1.1,0,0,1-.32.89,1.57,1.57,0,0,1-1.05.28h-.79L105,61.9h-2l-2.45-2.29H99.2V61.9Zm4.56-5H99.2v1.68h3.17a.87.87,0,0,0,.5-.1.46.46,0,0,0,.13-.38v-.73a.45.45,0,0,0-.13-.37A.87.87,0,0,0,102.37,56.89Z" transform="translate(0 0)"/><path class="cls-2" d="M109.11,61.9V55.84h1.41V61.9Z" transform="translate(0 0)"/><path class="cls-2" d="M115.49,61.9V55.84h1l4.27,3.57c.14.12.27.23.38.34a3.11,3.11,0,0,1,.31.32c0-.34,0-.58,0-.72s0-.25,0-.33V55.84h1.27V61.9h-1l-4.45-3.74-.28-.26-.22-.24c0,.19,0,.37,0,.53s0,.31,0,.44V61.9Z" transform="translate(0 0)"/><path class="cls-2" d="M133.28,56.92h-4.41v3.84h4.41V59.41H131v-1h3.68v2.09a1.56,1.56,0,0,1-.31,1.13,1.72,1.72,0,0,1-1.19.3H129a1.77,1.77,0,0,1-1.2-.3,1.61,1.61,0,0,1-.31-1.13v-3.2a1.61,1.61,0,0,1,.31-1.13,1.77,1.77,0,0,1,1.2-.3h4.18a1.76,1.76,0,0,1,1.19.3,1.42,1.42,0,0,1,.31,1.07v.14l-1.37.25Z" transform="translate(0 0)"/><path class="cls-2" d="M147,61.9a1.77,1.77,0,0,1-1.2-.3,1.57,1.57,0,0,1-.32-1.13v-.4a1.21,1.21,0,0,1,.14-.62,1.76,1.76,0,0,1,.61-.51l1.24-.74a1.75,1.75,0,0,1-.4-.44,1,1,0,0,1-.12-.48v-.34a1,1,0,0,1,.33-.85,2,2,0,0,1,1.17-.25h1.23a2,2,0,0,1,1.19.26,1.22,1.22,0,0,1,.31,1v.37l-1.09.18V56.8h-2v.44l2.86,2.37,1.41-1.17.8.69-1.4,1.16,1.92,1.61h-1.85l-1-.84-.54.48a1.35,1.35,0,0,1-.46.28,1.92,1.92,0,0,1-.68.08Zm-.33-1h2.81l.56-.49-1.82-1.51-1.55,1Z" transform="translate(0 0)"/><path class="cls-2" d="M163.93,61.9V55.84h1.14l2.86,3.66,2.79-3.66h1.13V61.9h-1.31V58.16c0-.08,0-.17,0-.28s0-.24,0-.37a4.23,4.23,0,0,1-.2.38,1.09,1.09,0,0,1-.15.25l-2.28,3h-.28l-2.28-3a2.64,2.64,0,0,1-.22-.32,1.35,1.35,0,0,1-.14-.3c0,.13,0,.24,0,.35s0,.2,0,.3V61.9Z" transform="translate(0 0)"/><path class="cls-2" d="M175.54,61.9,179,55.84h1.36l3.48,6.06h-1.59l-.73-1.32h-3.84l-.71,1.32Zm2.71-2.42h2.66L179.6,57Z" transform="translate(0 0)"/><path class="cls-2" d="M187.62,61.9V55.84h1l4.27,3.57c.14.12.27.23.38.34s.21.21.31.32c0-.34,0-.58-.05-.72s0-.25,0-.33V55.84h1.27V61.9h-1l-4.45-3.74-.28-.26-.22-.24c0,.19,0,.37,0,.53s0,.31,0,.44V61.9Z" transform="translate(0 0)"/><path class="cls-2" d="M201.14,55.84v4.92h4V55.84h1.41v4.63a1.56,1.56,0,0,1-.31,1.13,1.76,1.76,0,0,1-1.19.3h-3.84a1.76,1.76,0,0,1-1.19-.3,1.56,1.56,0,0,1-.31-1.13V55.84Z" transform="translate(0 0)"/><path class="cls-2" d="M211.55,61.9V55.84h6.14V56.9H213v1.59h2.56V59.6H213v2.3Z" transform="translate(0 0)"/><path class="cls-2" d="M219.08,61.9l3.43-6.06h1.36l3.47,6.06h-1.58L225,60.58h-3.84l-.71,1.32Zm2.71-2.42h2.66L223.14,57Z" transform="translate(0 0)"/><path class="cls-2" d="M236.06,56.92h-3.81v3.84h3.81v-1.3l1.41.29v.72a1.56,1.56,0,0,1-.31,1.13,1.76,1.76,0,0,1-1.19.3h-3.62a1.77,1.77,0,0,1-1.2-.3,1.61,1.61,0,0,1-.31-1.13v-3.2a1.61,1.61,0,0,1,.31-1.13,1.77,1.77,0,0,1,1.2-.3H236a1.76,1.76,0,0,1,1.19.3,1.56,1.56,0,0,1,.31,1.13v.58l-1.41.22Z" transform="translate(0 0)"/><path class="cls-2" d="M245.08,56.92v5h-1.41v-5h-2.78V55.84h7v1.08Z" transform="translate(0 0)"/><path class="cls-2" d="M252.89,55.84v4.92h4V55.84h1.4v4.63A1.56,1.56,0,0,1,258,61.6a1.74,1.74,0,0,1-1.19.3H253a1.77,1.77,0,0,1-1.2-.3,1.61,1.61,0,0,1-.31-1.13V55.84Z" transform="translate(0 0)"/><path class="cls-2" d="M263.3,61.9V55.84h5.19a1.59,1.59,0,0,1,1.05.28,1.12,1.12,0,0,1,.32.89v1.43a1.14,1.14,0,0,1-.32.89,1.59,1.59,0,0,1-1.05.28h-.79l2.8,2.29h-2L266,59.61h-1.34V61.9Zm4.57-5h-3.18v1.68h3.18a.87.87,0,0,0,.5-.1.46.46,0,0,0,.13-.38v-.73a.45.45,0,0,0-.13-.37A.87.87,0,0,0,267.87,56.89Z" transform="translate(0 0)"/><path class="cls-2" d="M274.61,61.9V55.84H276V61.9Z" transform="translate(0 0)"/><path class="cls-2" d="M281,61.9V55.84h1l4.27,3.57c.14.12.27.23.38.34s.21.21.31.32c0-.34,0-.58-.05-.72s0-.25,0-.33V55.84h1.27V61.9h-1l-4.45-3.74-.28-.26-.23-.24c0,.19,0,.37.05.53s0,.31,0,.44V61.9Z" transform="translate(0 0)"/><path class="cls-2" d="M298.78,56.92h-4.41v3.84h4.41V59.41h-2.31v-1h3.68v2.09a1.56,1.56,0,0,1-.31,1.13,1.74,1.74,0,0,1-1.19.3h-4.19a1.74,1.74,0,0,1-1.19-.3,1.56,1.56,0,0,1-.31-1.13v-3.2a1.56,1.56,0,0,1,.31-1.13,1.74,1.74,0,0,1,1.19-.3h4.19a1.73,1.73,0,0,1,1.18.3,1.42,1.42,0,0,1,.32,1.07v.14l-1.37.25Z" transform="translate(0 0)"/><path class="cls-3" d="M24,10.15a6.33,6.33,0,0,1,1.58-2.26,6.56,6.56,0,0,1,2.22-1.3,7.59,7.59,0,0,1,2.55-.43H53.64a6.85,6.85,0,0,1,2.45.46A6.55,6.55,0,0,1,58.31,8a7.78,7.78,0,0,1,1.63,2.33,7.43,7.43,0,0,1,.64,3.14v6.87h-9V15.58H32.42v22H51.55V32.86h9v6.81a7.46,7.46,0,0,1-.64,3.14,7.78,7.78,0,0,1-1.63,2.33,6.55,6.55,0,0,1-2.22,1.4,6.85,6.85,0,0,1-2.45.46H30.38a7.59,7.59,0,0,1-2.55-.43,6.56,6.56,0,0,1-2.22-1.3A6.33,6.33,0,0,1,24,43a8.53,8.53,0,0,1-.59-3.34V13.49A8.53,8.53,0,0,1,24,10.15Z" transform="translate(0 0)"/><path class="cls-3" d="M111.54,47H102l-2.4-5.5H80.84L78.44,47H68.8L85.73,6.16h9ZM95.94,32,90.07,18.66,84.76,32Z" transform="translate(0 0)"/><path class="cls-3" d="M120.81,6.16h9V37.84h24.08V47H120.81Z" transform="translate(0 0)"/><path class="cls-3" d="M163.7,23.18h26.88l.82-.79V16.11l-.82-.79H163.7V6.16h32.6a2.68,2.68,0,0,1,1.55.56,6.31,6.31,0,0,1,1.43,1.4A8.82,8.82,0,0,1,200.35,10a4.93,4.93,0,0,1,.44,1.93V25a11.87,11.87,0,0,1-.49,3.6A6.69,6.69,0,0,1,199,31a4.91,4.91,0,0,1-1.86,1.34,5.47,5.47,0,0,1-2.12.43H172.83V47H163.7Z" transform="translate(0 0)"/><path class="cls-3" d="M248.71,47h-9.54l-2.4-5.5H218L215.6,47H206L222.9,6.16h9ZM233.1,32l-5.87-13.35L221.93,32Z" transform="translate(0 0)"/><path class="cls-3" d="M300.82,47H289L277.36,31.49H267V47h-9V6.16h9V22h10.1L289,6.16h11.83l-15,20.42Z" transform="translate(0 0)"/></svg>